<svg version="1" xmlns="http://www.w3.org/2000/svg" width="533.333" height="533.333" viewBox="0 0 400.000000 400.000000"><path d="M0 200v200h400V0H0v200zm369.8-.3l-.3 169.8-169.7.3L30 370V30h340l-.2 169.7z"/><path d="M191.9 74.9c-2.6 2.8-5 7.2-7.9 14.8-2.3 5.9-5 11.9-6 13.3-.9 1.4-4.3 8.8-7.4 16.5-3.1 7.7-8.5 19.6-11.9 26.5-3.4 6.9-6.1 13.3-6 14.2.2 1-.7 2.3-1.8 2.9-2.6 1.3-9.1 15.1-8.3 17.3.4 1 .1 1.6-.8 1.6s-3.6 4.5-6.8 11.7c-2.9 6.5-11.7 25.1-19.6 41.4-19.5 40.5-24.7 52-24.6 54.6.1 1.2-1.5 4.5-3.5 7.5-3.1 4.3-3.7 6.2-3.8 10.3 0 3.5-.4 5-1.4 5-.7 0-2.1 2.2-3.1 4.8-1.5 3.8-1.6 5.4-.8 7.3l1.1 2.4h51.4l2.3-2.5c1.3-1.4 5.6-9.4 9.6-17.7l7.2-15.3 33.3-.3c28.3-.2 33.5-.5 34.2-1.7 1-1.9 2.7-1.9 2.7 0 0 1.3 2.3 1.5 14.3 1.5h14.3l8.9 17.7 9 17.8 27.4.3 27.3.2-.4-7.2c-.3-6.8-1-8.5-9.7-26.2-11.5-23.4-36.9-76.9-42.3-89.1-2.2-5-5.7-12.4-7.7-16.5-4.8-9.4-8.6-18-19.9-44.5-19.9-46.4-31.4-69.4-35.8-71.4-1.4-.6-4.1-1.1-6.1-1.1-2.9 0-4.3.8-7.4 3.9zm9.9 4.9c.2.7-.3 1.2-1.2 1.2-.9 0-1.6-.7-1.6-1.6 0-1.7 2.2-1.4 2.8.4zm1.2 6.6c0 .3-.4.8-1 1.1-.5.3-1 .1-1-.4 0-.6.5-1.1 1-1.1.6 0 1 .2 1 .4zm-7 1c0 .3-.4.8-1 1.1-.5.3-1 .1-1-.4 0-.6.5-1.1 1-1.1.6 0 1 .2 1 .4zm6 4.6c0 .5-.7 1-1.5 1s-1.5-.5-1.5-1c0-.6.7-1 1.5-1s1.5.4 1.5 1zm-5 4.5c0 .8-.4 1.5-1 1.5-.5 0-1-.7-1-1.5s.5-1.5 1-1.5c.6 0 1 .7 1 1.5zm15 0c0 .8-.4 1.5-1 1.5-.5 0-1-.7-1-1.5s.5-1.5 1-1.5c.6 0 1 .7 1 1.5zM191 99c0 .5-.7 1-1.5 1s-1.5-.5-1.5-1c0-.6.7-1 1.5-1s1.5.4 1.5 1zm16 2c0 .5-.7 1-1.6 1-.8 0-1.2-.5-.9-1 .3-.6 1-1 1.6-1 .5 0 .9.4.9 1zm-14 4c1.1.7.9 1.1-1.3 1.9-3.7 1.4-3.7 1.4-3.7-.9 0-2.1 2.4-2.7 5-1zm-9.4 6.7c-1 1-1.9-.5-1-1.8.6-1.1.8-1.1 1.2 0 .2.7.1 1.5-.2 1.8zm18.9 2.8c2.2 3 4.5 5.5 5.3 5.5.7 0 1-.5.7-1-.4-.6-.3-.9.2-.8.4.1 1.9-.4 3.1-1.1 3.7-2 3.6-.6-.3 2.7-3.7 3.3-4.4 6.1-2 8.5.8.8 1.8 3.5 2.1 5.9.5 3 1.7 5.2 4.1 7.5 1.8 1.7 2.9 3.4 2.4 3.8-1.1.6 3.9 11.8 25.9 58 8.3 17.6 17 36.2 19.3 41.4 2.3 5.2 4.9 9.6 5.8 9.8 1.1.3 1.4 1.2 1.1 2.8-.2 1.5.4 3.1 1.7 4.4 1.1 1.1 1.8 2.7 1.5 3.4-.3.8 2.7 7.8 6.5 15.6 3.9 7.9 7.6 16.1 8.3 18.2 1 3.6.9 4.2-.8 6-1.3 1.3-2.7 1.7-3.8 1.3-1-.4-4.5-6.1-7.8-12.8-3.2-6.7-6.3-12.5-6.9-13-.5-.6-.9-2-.9-3.3 0-1.3-.7-2.6-1.5-2.9-.9-.4-1.4-1.3-1.3-2.1.3-1.2-1.5-1.4-9.7-1.4-5.5 0-10.8.3-11.7.6-1 .4-1.8.3-1.8-.1 0-.5-4-.9-9-.9-4.9 0-9 .2-9 .5 0 .5-23.5.3-32.7-.3-2.4-.1-4.5.2-4.8.8-.3.7-.7.7-1 0-.3-.6-7.2-.9-18.3-.8-9.7.1-21.6.2-26.3.3h-8.7l-3.7 7.7c-4.3 9-6 15.9-4.4 17.9 1.2 1.4.3 5.4-1.2 5.4-.5 0-.9-1.1-.9-2.5 0-2.5-.1-2.5-3.1 1-4.4 4.9-6 5.7-9.8 4.2-3.7-1.4-3.8-1.8-1-4.3 2.6-2.4 4.9-6.7 4.9-9.2 0-1.5-.9-2.1-3.7-2.6-5.6-1-7.3-1.6-7.3-2.7 0-1.2 7.1-1.2 10.3 0 1.8.7 3 .6 4.3-.4 1.6-1.1 1.9-2.5 1.7-8-.2-6.2 0-6.7 1.8-6.2 1.6.4 2.6-.7 5.4-6.4 1.9-3.7 3.5-7.9 3.5-9.2 0-1.3.9-3.2 2.1-4.3 2.2-2 22-42 21.7-43.8-.1-.6 1.5-3.7 3.5-6.8 6.1-9.3 20.9-40 20.3-42.1-.3-1.3.5-2.7 2.3-4.2 3.3-2.9 6.9-9.4 11.2-20.4l3.2-8.5-2.7-2.1c-1.4-1.1-2.6-2.6-2.6-3.3 0-1.5 3.4-1.6 6.1-.2 1.6.9 2.1.7 2.8-1.2.4-1.3.6-4 .3-6.1-.2-2 0-3.7.4-3.7.5 0 2.7 2.5 4.9 5.5zm5.9-3.9c1.6.6 2.3 3.4.8 3.4-1 0-3.2-2.2-3.2-3.2s.3-1 2.4-.2zM192 114c0 .5-.4 1-1 1-.5 0-1-.5-1-1 0-.6.5-1 1-1 .6 0 1 .4 1 1zm32 1.8c0 .7-.6 1.2-1.2.9-.7-.2-2.1 0-3 .5-1.3.6-1.8.5-1.8-.6 0-.8.6-1.6 1.3-1.9 2.3-.8 4.7-.3 4.7 1.1zm-41 4.7c0 .8-.4 1.5-1 1.5-.5 0-1-.7-1-1.5s.5-1.5 1-1.5c.6 0 1 .7 1 1.5zm35 .3c0 .4-.5 1.3-1.2 2-.9.9-.8 1.5.7 2.5 2.3 1.8.4 3.2-3.1 2.3-3-.8-3.1-2.3-.2-5.3 2.2-2.3 3.8-3 3.8-1.5zm6 1.6c0 .3-.4.8-1 1.1-.5.3-1 .1-1-.4 0-.6.5-1.1 1-1.1.6 0 1 .2 1 .4zm-38 2.1c0 .8-.4 1.5-.9 1.5-1.3 0-2.2-1.6-1.4-2.4 1.1-1.1 2.3-.6 2.3.9zm40.1 1.8c-1.3 1.3-2.6.3-1.6-1.2.3-.6 1.1-.8 1.7-.5.6.4.6 1-.1 1.7zM174 126c0 .5-.4 1-1 1-.5 0-1-.5-1-1 0-.6.5-1 1-1 .6 0 1 .4 1 1zm11 2.5c0 .8-.9 1.5-2 1.5s-2-.7-2-1.5.9-1.5 2-1.5 2 .7 2 1.5zm-9 3.5c0 .5-.4 1-1 1-.5 0-1-.5-1-1 0-.6.5-1 1-1 .6 0 1 .4 1 1zm11 3.1c0 1-.7 1.9-1.5 1.9-1.5 0-2.1-3.1-.9-4.3 1.1-1 2.4.3 2.4 2.4zm34.8.6c.2.8-.5 1.3-1.7 1.3s-2.1-.6-2.1-1.6c0-1.8 3.1-1.5 3.8.3zm-52.3 1.4c-1 1.5-2.5 1-1.9-.6.4-.8 1-1.2 1.5-.9.5.3.7 1 .4 1.5zm9.5 6.4c0 .8-.7 1.5-1.5 1.5-1.6 0-2-1.2-.8-2.3 1.1-1.2 2.3-.8 2.3.8zm-11 .5c0 .5-.7 1-1.5 1s-1.5-.5-1.5-1c0-.6.7-1 1.5-1s1.5.4 1.5 1zm61.1 4.3c-1.6 1.6-2.6 0-1-1.9.9-1.1 1.5-1.2 1.7-.4.2.6-.1 1.7-.7 2.3zm7.9-1.8c0 .8-.4 1.5-1 1.5-.5 0-1-.7-1-1.5s.5-1.5 1-1.5c.6 0 1 .7 1 1.5zm-55.4 2.2c-1 1-1.9-.5-1-1.8.6-1.1.8-1.1 1.2 0 .2.7.1 1.5-.2 1.8zM168 151c0 .5-.7 1-1.5 1s-1.5-.5-1.5-1c0-.6.7-1 1.5-1s1.5.4 1.5 1zm65 2.5c0 .8-.4 1.5-1 1.5-.5 0-1-.7-1-1.5s.5-1.5 1-1.5c.6 0 1 .7 1 1.5zm-65.7 1.7c-.2.5.1.8.6.8.6 0 1.1-.5 1.1-1 0-.6.5-1 1.1-1 .5 0 .9.8.8 1.7-.1 1 .1 3 .6 4.6.7 2.7-1 8.7-2.5 8.7-.4 0-1.1-1.2-1.4-2.6-.4-1.5-1.8-4.3-3.2-6.3-3.2-4.7-3.1-6.1.5-5.8 1.6.1 2.7.5 2.4.9zM241 157c0 .5-.4 1-1 1-.5 0-1-.5-1-1 0-.6.5-1 1-1 .6 0 1 .4 1 1zm-9 2c0 .5-.4 1-1 1-.5 0-1-.5-1-1 0-.6.5-1 1-1 .6 0 1 .4 1 1zm10 11.4c0 .2.3 1.1.6 2 .7 1.8-1.2 2.1-3.5.7-1.6-1-.6-3.1 1.5-3.1.8 0 1.4.2 1.4.4zm-74.6 2.5c.6 1-1 2.5-3.6 3.4-2.2.8-2.3-.6-.2-2.7 1.7-1.8 3-2 3.8-.7zM239 183c0 2.1-1.5 2.7-2.5 1-.7-1.2.2-3 1.6-3 .5 0 .9.9.9 2zm9-1c0 .5-.4 1-1 1-.5 0-1-.5-1-1 0-.6.5-1 1-1 .6 0 1 .4 1 1zm-3 6c0 1.1-.4 2-1 2-.5 0-1-.9-1-2s.5-2 1-2c.6 0 1 .9 1 2zm-98 5c0 .5-.4 1-1 1-.5 0-1-.5-1-1 0-.6.5-1 1-1 .6 0 1 .4 1 1zm98 1.5c0 .8-.4 1.5-1 1.5-.5 0-1-.7-1-1.5s.5-1.5 1-1.5c.6 0 1 .7 1 1.5zm13-1.1c0 .2.3 1.1.6 2 .9 2.3-1.3 2-2.6-.4-.9-1.6-.8-2 .5-2 .8 0 1.5.2 1.5.4zm-3.6 7.1c.6 1.7.4 1.8-1.8.9-2-.8-2.1-2.4-.2-2.4.8 0 1.6.7 2 1.5zm5.1 7.5c.3.5.1 1-.4 1-.6 0-1.1-.5-1.1-1 0-.6.2-1 .4-1 .3 0 .8.4 1.1 1zM141 211.6c0 .8-.4 1.2-1 .9-.5-.3-1-1-1-1.6 0-.5.5-.9 1-.9.6 0 1 .7 1 1.6zm-12 1.9c0 .8-.4 1.5-1 1.5-.5 0-1-.7-1-1.5s.5-1.5 1-1.5c.6 0 1 .7 1 1.5zm9 .5c0 .5-.4 1-1 1-.5 0-1-.5-1-1 0-.6.5-1 1-1 .6 0 1 .4 1 1zm-1.5 3.9c.3.5.1 1.2-.5 1.6-.5.3-1-.1-1-.9 0-1.8.6-2.1 1.5-.7zm121.5 1.2c0 .5-.7.9-1.5.9-1.5 0-2-1.2-.9-2.3.8-.8 2.4.1 2.4 1.4zm-117 3.4c0 .8-.7 1.5-1.5 1.5-2.6 0-1.8-2 1.3-2.9.1-.1.2.6.2 1.4zm133.4 4.2c-2.4 3.2-4.4 4.1-4.4 2 0-1.5 5.1-5.9 5.9-5.1.3.2-.4 1.6-1.5 3.1zM260 226c0 .5-.5 1-1.1 1-.5 0-.7-.5-.4-1 .3-.6.8-1 1.1-1 .2 0 .4.4.4 1zm5 5c0 .5-.4 1-1 1-.5 0-1-.5-1-1 0-.6.5-1 1-1 .6 0 1 .4 1 1zm-135.5 1c-.3.5-1.1 1-1.6 1-.6 0-.7-.5-.4-1 .3-.6 1.1-1 1.6-1 .6 0 .7.4.4 1zm4.5 2.5c0 .8-.4 1.5-1 1.5-.5 0-1-.7-1-1.5s.5-1.5 1-1.5c.6 0 1 .7 1 1.5zm-3 4.5c0 .5-.4 1-1 1-.5 0-1-.5-1-1 0-.6.5-1 1-1 .6 0 1 .4 1 1zm134 1.5c0 .8-.4 1.5-1 1.5-.5 0-1-.7-1-1.5s.5-1.5 1-1.5c.6 0 1 .7 1 1.5zm-137.6 1.4c.3.5-.1 1.1-.9 1.5-.9.3-1.5 0-1.5-.9 0-1.6 1.6-2 2.4-.6zm146.3 2.7c-.6.7-3.7-.7-3.7-1.6 0-1.5 3.5-1.6 3.8-.2.2.7.2 1.6-.1 1.8zm-140.7 2c0 .8-.5 1.4-1.1 1.4-.5 0-.8.3-.6.7.3.5-.8.8-2.4.9-3.5.1-3.6-.3-.8-3.2 2.2-2.3 4.9-2.2 4.9.2zm150.2.9c3.4 2.3 5.7 6 4.4 7.2-1.5 1.5-11.6-6.4-11.6-9.1 0-1.4 3.8-.4 7.2 1.9zm-158.2.4c0 1.4-2.9 4.6-3.5 3.9-1.4-1.3.4-5.8 2-5.2.8.4 1.5.9 1.5 1.3zm152 6.1c0 .5-.4 1-1 1-.5 0-1-.5-1-1 0-.6.5-1 1-1 .6 0 1 .4 1 1zm2.9 1.9c1.8 1.1.5 3.1-2 3.1-1.8 0-2.6-2-1.2-3.3.8-.9 1.5-.9 3.2.2zm-160.9 4c-2 3.9-4.7 4-3.5.2.3-1.2 1.5-2.1 2.6-2.1 1.6 0 1.8.3.9 1.9zm-8 1.1c0 .5-.4 1-1 1-.5 0-1-.5-1-1 0-.6.5-1 1-1 .6 0 1 .4 1 1zm174 0c0 .5-.9 1-2 1s-2-.5-2-1c0-.6.9-1 2-1s2 .4 2 1zm-164 3.4c0 .3-.4.8-1 1.1-.5.3-1 .1-1-.4 0-.6.5-1.1 1-1.1.6 0 1 .2 1 .4zm173.2 2.1c0 .5-.5 1.1-1.1 1.3-.6.2-1.1-.4-1.1-1.3s.5-1.5 1.1-1.3c.6.2 1.1.8 1.1 1.3zm-180.2 2c0 .8-.4 1.5-1 1.5-.5 0-1-.7-1-1.5s.5-1.5 1-1.5c.6 0 1 .7 1 1.5zm37.1 3.8c-.1 1.2-1.5.9-1.9-.4-.3-.6.1-1 .8-.8.6.3 1.1.8 1.1 1.2zm106.9 1.8c0 .5-.7.9-1.5.9-1.5 0-2-1.2-.9-2.3.8-.8 2.4.1 2.4 1.4zm42-1.1c0 .5-.5 1-1.1 1-.5 0-.7-.5-.4-1 .3-.6.8-1 1.1-1 .2 0 .4.4.4 1zm-184.5 1.3c1.4 1.1 1.5 1.6.5 2.2-.7.4-1.6.2-2.1-.6-.6-1-.9-.8-.9.8 0 2.5-.7 2.8-3 1.3-1.2-.7-1.2-1.2.4-2.9 2.2-2.5 2.6-2.5 5.1-.8zm106.4 1.3c.3 1.6.1 1.7-1.3.5-1.9-1.6-2.1-3.4-.3-2.9.6.3 1.4 1.3 1.6 2.4zm-61.9-.1c0 .8-.7 1.5-1.5 1.5s-1.5-.7-1.5-1.5.7-1.5 1.5-1.5 1.5.7 1.5 1.5zm137 .5c0 .5-.4 1-1 1-.5 0-1-.5-1-1 0-.6.5-1 1-1 .6 0 1 .4 1 1zm-12.2 1.2c-.6 1.8-2.8 2.1-2.8.4 0-.9.7-1.6 1.6-1.6.9 0 1.4.5 1.2 1.2zm-146.8.6c0 .5-1.1 1.4-2.5 2-2.2 1-2.5.9-2.5-.8 0-1.5.7-2 2.5-2 1.4 0 2.5.4 2.5.8zm8.8 1c.2.7-.3 1.2-1.2 1.2-.9 0-1.6-.7-1.6-1.6 0-1.7 2.2-1.4 2.8.4zm96.7-.7c1 1.5-1.5 6.9-3.1 6.9-.7 0-1.2-.6-1-1.3.3-.6.7-2.4 1-4 .7-2.8 2-3.5 3.1-1.6zM105 279c0 .5-.4 1-1 1-.5 0-1-.5-1-1 0-.6.5-1 1-1 .6 0 1 .4 1 1zm189-.5c0 2.2-3.4 6.4-5.6 6.9-3.8 1-3.8.4-.2-3.7 2.9-3.2 5.8-4.8 5.8-3.2zM164 280c0 .5-.4 1-1 1-.5 0-1-.5-1-1 0-.6.5-1 1-1 .6 0 1 .4 1 1zm23 1c0 .5-.4 1-1 1-.5 0-1-.5-1-1 0-.6.5-1 1-1 .6 0 1 .4 1 1zm23 0c0 .5-.4 1-1 1-.5 0-1-.5-1-1 0-.6.5-1 1-1 .6 0 1 .4 1 1zm42-.1c0 1.5-3.8 5.6-4.5 4.9-.8-.8 2.3-5.8 3.6-5.8.5 0 .9.4.9.9zm8.5.1c.3.5.1 1-.4 1-.6 0-1.1-.5-1.1-1 0-.6.2-1 .4-1 .3 0 .8.4 1.1 1zm-81.3 2.2c-.7.7-1.2.8-1.2.2 0-1.4 1.2-2.6 1.9-1.9.2.3-.1 1.1-.7 1.7zm52.7 1.5c1.3-.3 2.1 0 2.1.8 0 .7-1 1.5-2.2 1.9-3.3.8-3.5.8-4.2-1-.8-2.1.4-4 1.4-2.4.4.7 1.7 1 2.9.7zm-97.9 1c0 .5-1.2 1.6-2.5 2.6-1.9 1.3-2.5 1.5-2.5.4 0-.7.5-1.8 1.2-2.5 1.3-1.3 3.8-1.6 3.8-.5zm63 1.8c0 .8-.4 1.5-1 1.5-.5 0-1-.7-1-1.5s.5-1.5 1-1.5c.6 0 1 .7 1 1.5zm11-.6c0 1.2-2 2.5-2.7 1.8-.7-.7.6-2.7 1.8-2.7.5 0 .9.4.9.9zm62 .1c0 .5-.4 1-1 1-.5 0-1-.5-1-1 0-.6.5-1 1-1 .6 0 1 .4 1 1zm-30 1.5c0 .8-.7 1.5-1.5 1.5-1.6 0-2-1.2-.8-2.3 1.1-1.2 2.3-.8 2.3.8zm20.4-.7c.2.4.1 1.4-.4 2.1-1 1.7-3.1.5-2.3-1.4.6-1.6 1.9-2 2.7-.7zm27.1.2c.3.5-.1 1-.9 1-.9 0-1.6-.5-1.6-1 0-.6.4-1 .9-1 .6 0 1.3.4 1.6 1zm-146.7 2.9c.3.8-.1 1.2-.9.9-.7-.2-1.5-1-1.7-1.7-.3-.8.1-1.2.9-.9.7.2 1.5 1 1.7 1.7zm131.2.1c0 .5-.4 1-1 1-.5 0-1-.5-1-1 0-.6.5-1 1-1 .6 0 1 .4 1 1zm-161 2.5c0 .8-.4 1.5-1 1.5-.5 0-1-.7-1-1.5s.5-1.5 1-1.5c.6 0 1 .7 1 1.5zm158-.5c0 .5-.7 1-1.5 1s-1.5-.5-1.5-1c0-.6.7-1 1.5-1s1.5.4 1.5 1zm21.8.2c-.6 1.8-2.8 2.1-2.8.4 0-.9.7-1.6 1.6-1.6.9 0 1.4.5 1.2 1.2zm3.2-.8c0 .3-.4.8-1 1.1-.5.3-1 .1-1-.4 0-.6.5-1.1 1-1.1.6 0 1 .2 1 .4zm-37 1c0 .3-.4.8-1 1.1-.5.3-1 .1-1-.4 0-.6.5-1.1 1-1.1.6 0 1 .2 1 .4zm-159 4c-1.5 1.5-3.3-.4-1.9-2 1-1.2 1.4-1.2 2-.2.5.7.4 1.7-.1 2.2zm31.4-.3c-1 1.6-2.4.9-2.4-1.2 0-1.8.2-1.9 1.5-.9.8.7 1.2 1.6.9 2.1zm130.3 1.5c-.3.3-1.2.4-1.9.1-.8-.3-.5-.6.6-.6 1.1-.1 1.7.2 1.3.5zm37.4 3.3c-1 1.8-3.1 2.9-3.1 1.6 0-1.8 2.5-5.4 3.3-4.6.5.5.4 1.7-.2 3zm-159.6-.9c0 .7-.6 1.5-1.2 1.7-.8.3-1.3-.4-1.3-1.7 0-1.3.5-2 1.3-1.8.6.3 1.2 1.1 1.2 1.8zM94 301c0 .5-.7 1-1.6 1-.8 0-1.2-.5-.9-1 .3-.6 1-1 1.6-1 .5 0 .9.4.9 1zm212 0c0 .5-.7 1-1.5 1s-1.5-.5-1.5-1c0-.6.7-1 1.5-1s1.5.4 1.5 1zm-31 2c0 1.1-.7 2-1.5 2-1.7 0-1.8-.2-.9-2.4.9-2.3 2.4-2 2.4.4zm-172 3c0 .5-.4 1-1 1-.5 0-1-.5-1-1 0-.6.5-1 1-1 .6 0 1 .4 1 1zm159 0c0 .5-.4 1-1 1-.5 0-1-.5-1-1 0-.6.5-1 1-1 .6 0 1 .4 1 1zm-164 5c0 .5-.7.7-1.5.4-.8-.4-1.2-1-.9-1.5.6-1.1 2.4-.2 2.4 1.1zm16.4-1.1c.9 1.4-1.7 3.9-4.8 4.7-2.5.6-2.8.5-2.3-1 .4-1 .7-2.1.7-2.6s1-1.1 2.3-1.3c1.2-.2 2.5-.5 2.9-.6.4 0 .9.3 1.2.8zm7.6 2.6c.7.9 1.1 1.8.8 2-.9 1-3.8-.7-3.8-2.1 0-1.8 1.4-1.8 3 .1zm9-.5c0 .5-.4 1-1 1-.5 0-1-.5-1-1 0-.6.5-1 1-1 .6 0 1 .4 1 1zm156 .5c0 .8-.4 1.5-.9 1.5-1.3 0-2.2-1.6-1.4-2.4 1.1-1.1 2.3-.6 2.3.9zm8 2.4c0 .6-.4 1.3-1 1.6-.5.3-1-.1-1-.9 0-.9.5-1.6 1-1.6.6 0 1 .4 1 .9zm-159 1.7c0 .8-.4 1.2-1 .9-.5-.3-1-1-1-1.6 0-.5.5-.9 1-.9.6 0 1 .7 1 1.6zm146-.1c0 .8-.4 1.5-1 1.5-.5 0-1-.7-1-1.5s.5-1.5 1-1.5c.6 0 1 .7 1 1.5zm9 1.4c0 1.7-4.4 5.9-6.7 6.6-3.3.9-3.1-2.8.3-5.4 2.8-2.2 6.4-2.8 6.4-1.2zm13.8 2.2c.2 2.3.2 2.3-1.3.5-1.8-2.4-2-3.9-.2-3.4.6.3 1.3 1.5 1.5 2.9zM270 319c0 .5-.4 1-1 1-.5 0-1-.5-1-1 0-.6.5-1 1-1 .6 0 1 .4 1 1zm-163 2.1c0 .5-.4.9-1 .9-.5 0-1-.7-1-1.6 0-.8.5-1.2 1-.9.6.3 1 1 1 1.6zm17-.1c0 .5-.4 1-1 1-.5 0-1-.5-1-1 0-.6.5-1 1-1 .6 0 1 .4 1 1zm-28 1c0 .5-.4 1-1 1-.5 0-1-.5-1-1 0-.6.5-1 1-1 .6 0 1 .4 1 1zm179 1c0 .5-.4 1-.9 1-.6 0-1.3-.5-1.6-1-.3-.6.1-1 .9-1 .9 0 1.6.4 1.6 1z"/><path d="M201.7 136.7c-.4.3-.7 1.9-.7 3.5 0 3.3-1 3.6-2.8.8-1.8-2.9-2.7-1.9-5.3 5.8-2.7 8.3-4.7 12.4-6.6 13.5-1.1.7-1.1 1.2-.3 2.2 1.3 1.6.6 3.5-1.3 3.5-.7.1-4.1 5.8-7.6 12.9-4.8 9.6-6.2 13.4-5.8 15.3.5 2-.1 3.1-3 5.9-4.6 4.3-12.5 21-12.1 25.3.2 2.4-.1 3.1-1.5 3.1-2 0-3.9 2.4-3 3.8.3.5-.4 1.5-1.4 2.2-2.5 1.8-7.4 12.5-8 17.9-.6 4.4-2 6.9-3.4 6-.5-.3-.6.2-.3 1 .5 1.4 3.6 1.6 22.3 1.6h21.8l1.1-2.5c.6-1.4 1.9-2.5 2.7-2.5 1.2 0 1.4.4.5 1.9-.5 1.1-1 2.2-1 2.5 0 1 3.8.7 6.5-.6 1.9-.9 2.8-.9 3.7 0 1.7 1.7 25.4 1.6 26.2-.1.5-1 .7-1 1.2 0 .3.8 2.4 1.3 5 1.3 2.8 0 4.4-.4 4.4-1.3 0-.8.3-.9.8-.1.9 1.4 25.8 1.9 26.7.5 1.3-2.2-4.4-10.7-8.2-12.2-2.6-1-3.1-2.9-.8-2.9 2 0 1.9-.8-.6-7.3-1.7-4.4-2.4-5.4-4-5-1 .3-1.9 0-1.9-.6s.5-1.1 1-1.1c1.9 0 1-1.9-1.2-2.6-3-.9-4-2.5-2.6-4.1.8-.9-1.5-7.2-8.7-23.5-15.1-34.5-18.3-41.5-24.7-53.3-6.9-12.6-6.3-11.7-7.1-10.8zm-1.3 11.5c2.9 4.1 1.5 5.1-2.4 2-1.3-1.1-2-2.4-1.6-3 1.1-1.8 2.3-1.5 4 1zm-3.4 5.3c0 .8-.4 1.5-1 1.5-.5 0-1-.7-1-1.5s.5-1.5 1-1.5c.6 0 1 .7 1 1.5zm-3 3.5c0 .5-.4 1-1 1-.5 0-1-.5-1-1 0-.6.5-1 1-1 .6 0 1 .4 1 1zm11.5 2c.3.5-.3 1-1.4 1-1.2 0-2.1-.5-2.1-1 0-.6.6-1 1.4-1 .8 0 1.8.4 2.1 1zm3.5 2c0 .5-.4 1-1 1-.5 0-1-.5-1-1 0-.6.5-1 1-1 .6 0 1 .4 1 1zm-4.6 3.1c-.8 1.4-2.4 1-2.4-.6 0-.9.6-1.2 1.5-.9.8.4 1.2 1 .9 1.5zm-12.2 2.9c-2.5 2.4-3.2 2.5-3.2.5 0-.9 1-1.9 2.3-2.4 3.1-1.2 3.4-.4.9 1.9zm17.4-.5c-1.9 1.4-3.6 1.2-3.6-.6 0-.5 1.2-.9 2.8-.9 2.6.1 2.6.1.8 1.5zm9.1 6.1c-1 1-3.7-1.6-3.7-3.4 0-1.3.4-1.2 2.2.5 1.2 1.3 1.9 2.5 1.5 2.9zm-16.2-1.6c.3.5.1 1-.4 1-.6 0-1.1-.5-1.1-1 0-.6.2-1 .4-1 .3 0 .8.4 1.1 1zm-14.5 2.9c0 2.1-4.3 5.8-4.8 4.2-.4-1.2 2.7-6.1 3.9-6.1.5 0 .9.9.9 1.9zm6.8 2.8c-.5 2.5-2.8 2.8-2.8.4 0-1.2.6-2.1 1.6-2.1.9 0 1.4.7 1.2 1.7zm6.7-.7c.3.5.1 1-.4 1-.6 0-1.1-.5-1.1-1 0-.6.2-1 .4-1 .3 0 .8.4 1.1 1zm-2.5 6c0 .5-.4 1-1 1-.5 0-1-.5-1-1 0-.6.5-1 1-1 .6 0 1 .4 1 1zm4 4.9c-.8 1.6.1 4.1 4.9 13.4 4.2 7.9 6.3 11.1 7 10.4 1.7-1.7 2.1-.3.9 3-1 2.7-.7 4 3.7 13.3 5.4 11.6 5.7 11-4.6 13.5-5 1.3-7.2 1.4-8.7.6-1.2-.6-7.9-1.1-16.1-1.1H176v-3.8c0-5.2 20.6-47.9 24.1-49.8 3.4-1.9 4.1-1.7 2.9.5zm-24 1.6c0 .8-.9 1.9-2 2.5-1.8.9-2 .8-2-1.5 0-1.8.5-2.5 2-2.5 1.1 0 2 .7 2 1.5zm2 6.1c0 .8-.4 1.2-1 .9-.5-.3-1-1-1-1.6 0-.5.5-.9 1-.9.6 0 1 .7 1 1.6zm48 1.4c0 .5-.2 1-.4 1-.3 0-.8-.5-1.1-1-.3-.6-.1-1 .4-1 .6 0 1.1.4 1.1 1zm-47.7 2.7c-.7.2-2.1.2-3 0-1-.3-.4-.5 1.2-.5 1.7 0 2.4.2 1.8.5zm47.5 2.6c.3 1.6.1 1.7-1.7.7-2.5-1.3-2.8-3.3-.4-2.8 1 .2 1.9 1.1 2.1 2.1zm-44.8.2c0 .8-.7 1.5-1.5 1.5s-1.5-.7-1.5-1.5.7-1.5 1.5-1.5 1.5.7 1.5 1.5zm42.6 8.4c-1.3 2-2.6 1.1-2.6-1.6 0-2.5.1-2.6 1.6-1.1.9.9 1.3 2.1 1 2.7zm-55.6 1c0 .6-.4 1.3-1 1.6-.5.3-1-.1-1-.9 0-.9.5-1.6 1-1.6.6 0 1 .4 1 .9zm4 1.1c0 .5-.4 1-1 1-.5 0-1-.5-1-1 0-.6.5-1 1-1 .6 0 1 .4 1 1zm56.8 1.8c.2.7-.2 1-1.2.6-.9-.3-1.6-1.1-1.6-1.6 0-1.3 2.3-.5 2.8 1zm5 2.4c-.6 1.8-2.8 2.1-2.8.4 0-.9.7-1.6 1.6-1.6.9 0 1.4.5 1.2 1.2zm4.2 6.8c0 .5-.7 1-1.6 1-.8 0-1.2-.5-.9-1 .3-.6 1-1 1.6-1 .5 0 .9.4.9 1zm-74.4 1.4c1.8 1.9 1.8 2.6-.1 2.6-.8 0-1.5-.2-1.5-.4s-.3-1.1-.6-2c-.8-2 .3-2.1 2.2-.2zm67 1.3c-1 1-1.9-.5-1-1.8.6-1.1.8-1.1 1.2 0 .2.7.1 1.5-.2 1.8zm3.1 2.3c.1 1.1-.2 2-.8 2-.5 0-.9-.2-.9-.4s-.3-1.1-.6-2c-.4-1-.1-1.6.8-1.6.7 0 1.4.9 1.5 2zm-65.5 1.5c0 .5-.5 1.1-1.1 1.3-.6.2-1.1-.4-1.1-1.3s.5-1.5 1.1-1.3c.6.2 1.1.8 1.1 1.3zm-7.2 1.4c0 .6-.4 1.3-1 1.6-.5.3-1-.1-1-.9 0-.9.5-1.6 1-1.6.6 0 1 .4 1 .9zm65 .1c0 .5-.4 1-1 1-.5 0-1-.5-1-1 0-.6.5-1 1-1 .6 0 1 .4 1 1zm-59.7 4.2c.9 3.2-.3 4.3-2 1.9-1.4-2-1.1-4.1.6-4.1.5 0 1.1 1 1.4 2.2zm-12.2 1.1c-1.3 1.3-2.6.3-1.6-1.2.3-.6 1.1-.8 1.7-.5.6.4.6 1-.1 1.7zm74.9-.8c0 .8-.7 1.5-1.6 1.5-1.4 0-1.4-.3-.4-1.5.7-.8 1.4-1.5 1.6-1.5.2 0 .4.7.4 1.5zm-69.5 5.2c-.7 3-2.1 5-3 4.2-.3-.3-.8-2-1.1-3.7-.6-3-.5-3.2 2.1-3.2 2.5 0 2.7.3 2 2.7zm77.5-.7c0 .5-.7 1-1.5 1s-1.5-.5-1.5-1c0-.6.7-1 1.5-1s1.5.4 1.5 1zm-7 1.5c0 .8-.7 1.5-1.5 1.5-1.6 0-2-1.2-.8-2.3 1.1-1.2 2.3-.8 2.3.8zm13.8.7c-.3.7-1.3 1.5-2.4 1.7-1.6.3-1.7.1-.5-1.3 1.6-1.9 3.4-2.1 2.9-.4zm-54.8 3.3c0 .8-.4 1.5-1 1.5-.5 0-1-.7-1-1.5s.5-1.5 1-1.5c.6 0 1 .7 1 1.5zm-8 1.6c0 .6-.4.7-1 .4-.5-.3-1-1.1-1-1.6 0-.6.5-.7 1-.4.6.3 1 1.1 1 1.6zm57 1.9c-1.9 1.2-5 1.3-5 .2 0-.5 1-1.4 2.3-1.9 2.6-1.3 5 .2 2.7 1.7zm-67 0c0 .5-.4 1.2-1 1.5-.5.3-1 .4-1 .1 0-.2-.3-1.2-.6-2-.5-1.2-.2-1.5 1-1 .9.3 1.6 1 1.6 1.4zm28 .1c0 .5-.7.9-1.5.9-1.5 0-2-1.2-.9-2.3.8-.8 2.4.1 2.4 1.4zm-43.6 2.7c-.7 3.6-1.5 3.9-3.5 1.6-1.1-1.4-.9-1.9 1.1-3.4 3-2.3 3.2-2.1 2.4 1.8zm33.6-2.9c0 1.2-3.9 2.5-4.8 1.6-.7-.7 1.7-2.5 3.6-2.5.6 0 1.2.4 1.2.9zm30 .6c0 .8-.4 1.5-1 1.5-.5 0-1-.7-1-1.5s.5-1.5 1-1.5c.6 0 1 .7 1 1.5zm-43 .5c0 .5-.4 1-1 1-.5 0-1-.5-1-1 0-.6.5-1 1-1 .6 0 1 .4 1 1zm36 .2c0 .7-1.1 1.8-2.5 2.5-1.4.6-2.5.7-2.5.2 0-.5.5-.9 1-.9.6 0 1-.7 1-1.5s.7-1.5 1.5-1.5 1.5.6 1.5 1.2zm33 .3c0 .8-.7 1.5-1.5 1.5-1.6 0-2-1.2-.8-2.3 1.1-1.2 2.3-.8 2.3.8zm-57 1.5c0 .5-.5 1-1.1 1-.5 0-.7-.5-.4-1 .3-.6.8-1 1.1-1 .2 0 .4.4.4 1zm8.8.8c.2.7-.6 1.2-1.7 1.2-2.1 0-2.7-1.1-1.4-2.4.9-.9 2.6-.2 3.1 1.2zm-30 1.1c.3.8-.1 1.2-.9.9-.7-.2-1.5-1-1.7-1.7-.3-.8.1-1.2.9-.9.7.2 1.5 1 1.7 1.7zm54.7-.8c1.1 1.7-.1 2.1-1.5.4-.8-.9-.8-1.5-.2-1.5.6 0 1.4.5 1.7 1.1zm19.9 2.4c.3.9 0 1.5-.9 1.5-.8 0-1.5-.7-1.5-1.5s.4-1.5.9-1.5 1.1.7 1.5 1.5zm-12.8.6c1.1 1.8-1.3 3.4-3.1 1.9-.8-.7-1.5-1.6-1.5-2.1 0-1.3 3.8-1.1 4.6.2zm-84.2 2.4c-.4.8-1.5 1.5-2.5 1.5-2.7 0-2.4-1.8.4-2.3 1.2-.2 2.3-.5 2.4-.6.1 0 0 .6-.3 1.4zm14.6.5c0 .5-.7 1-1.5 1s-1.5-.5-1.5-1c0-.6.7-1 1.5-1s1.5.4 1.5 1z"/></svg>